<?xml version="1.0" encoding="utf-8"?>
<!-- Generator: Adobe Illustrator 23.0.5, SVG Export Plug-In . SVG Version: 6.00 Build 0)  -->
<svg version="1.1" id="Layer_1" xmlns="http://www.w3.org/2000/svg" xmlns:xlink="http://www.w3.org/1999/xlink" x="0px" y="0px"
	 viewBox="0 0 1417.32 1417.32" style="enable-background:new 0 0 1417.32 1417.32;" xml:space="preserve">
<style type="text/css">
	.st0{fill:#D7DADC;}
</style>
<g>
	<path class="st0" d="M370.91,705v126.88h-49.03l-1.11-28.82c-13.48,20.95-36.69,32.57-61.39,32.57c-41.91,0-69.98-25.08-69.98-62.5
		c0-38.93,34.44-64.38,86.08-64.38c13.85,0,29.19,1.5,44.53,4.5v-3.74c0-26.95-17.96-43.04-48.65-43.04
		c-19.08,0-34.42,5.62-47.16,16.09l-22.08-29.94c21.71-17.59,47.16-26.2,82.34-26.2C336.11,626.41,370.91,657.47,370.91,705z
		 M320.01,747.67c-13.09-2.62-26.57-4.11-38.17-4.11c-23.95,0-39.29,11.22-39.29,28.44c0,16.47,10.85,27.32,31.42,27.32
		C297.57,799.32,319.65,780.6,320.01,747.67z"/>
	<path class="st0" d="M634.81,730.08c0,63.26-42.29,105.55-96.55,105.55c-30.69,0-52.77-12.36-66.99-32.95v111.53h-50.9V630.15
		h49.03l1.13,30.31c14.21-21.33,36.67-34.06,67.73-34.06C592.52,626.41,634.81,667.58,634.81,730.08z M582.04,730.45
		c0-36.3-22.45-60.63-55.38-60.63c-33.31,0-55.39,24.33-55.39,61c0,36.69,22.08,61.01,55.39,61.01
		C559.59,791.83,582.04,767.51,582.04,730.45z"/>
	<path class="st0" d="M889.37,730.08c0,63.26-42.29,105.55-96.55,105.55c-30.69,0-52.77-12.36-66.99-32.95v111.53h-50.9V630.15
		h49.03l1.13,30.31c14.21-21.33,36.67-34.06,67.73-34.06C847.08,626.41,889.37,667.58,889.37,730.08z M836.59,730.45
		c0-36.3-22.45-60.63-55.38-60.63c-33.31,0-55.39,24.33-55.39,61c0,36.69,22.08,61.01,55.39,61.01
		C814.15,791.83,836.59,767.51,836.59,730.45z"/>
	<path class="st0" d="M929.86,539.96h50.89v291.92h-50.89V539.96z"/>
	<path class="st0" d="M1221.79,749.17h-146.33c3.74,28.44,19.08,46.4,48.65,46.4c20.57,0,37.42-9.36,49.4-23.95l39.31,19.84
		c-18.35,26.94-49.78,44.16-87.96,44.16c-61.75,0-103.3-41.18-103.3-103.3c0-63.63,40.42-105.92,100.68-105.92
		c60.63,0,100.68,40.42,100.68,101.42C1222.91,734.95,1222.53,743.18,1221.79,749.17z M1075.46,714.73h94.3
		c-3.74-30.69-19.83-48.28-47.52-48.28C1095.67,666.45,1079.57,684.04,1075.46,714.73z"/>
	<path class="st0" d="M1252.54,802.31c0-18.34,15.34-33.31,33.68-33.31c17.97,0,32.95,14.97,32.95,33.31s-14.97,33.31-32.95,33.31
		C1267.88,835.62,1252.54,820.65,1252.54,802.31z"/>
</g>
</svg>
